<?xml version="1.0" encoding="UTF-8"?>
<svg width="108px" height="108px" viewBox="0 0 108 108" version="1.1" xmlns="http://www.w3.org/2000/svg" xmlns:xlink="http://www.w3.org/1999/xlink">
    <!-- Generator: Sketch 53.2 (72643) - https://sketchapp.com -->
    <title>Group</title>
    <desc>Created with Sketch.</desc>
    <defs>
        <linearGradient x1="62.1023273%" y1="0%" x2="108.19718%" y2="37.8635764%" id="linearGradient-1">
            <stop stop-color="#4285EB" offset="0%"></stop>
            <stop stop-color="#2EC7FF" offset="100%"></stop>
        </linearGradient>
        <linearGradient x1="69.644116%" y1="0%" x2="54.0428975%" y2="108.456714%" id="linearGradient-2">
            <stop stop-color="#29CDFF" offset="0%"></stop>
            <stop stop-color="#148EFF" offset="37.8600687%"></stop>
            <stop stop-color="#0A60FF" offset="100%"></stop>
        </linearGradient>
        <linearGradient x1="69.7490647%" y1="-12.9743587%" x2="16.6244597%" y2="117.391248%" id="linearGradient-3">
            <stop stop-color="#FA816E" offset="0%"></stop>
            <stop stop-color="#F74A5C" offset="41.472606%"></stop>
            <stop stop-color="#F51D2C" offset="100%"></stop>
        </linearGradient>
        <linearGradient x1="68.1279872%" y1="-35.8316756%" x2="30.4400914%" y2="115.049617%" id="linearGradient-4">
            <stop stop-color="#FA8E7D" offset="0%"></stop>
            <stop stop-color="#F74A5C" offset="51.2635191%"></stop>
            <stop stop-color="#F51D2C" offset="100%"></stop>
        </linearGradient>
    </defs>
    <g id="Page-1" stroke="none" stroke-width="1" fill="none" fill-rule="evenodd">
        <g id="Group">
            <rect id="Rectangle" stroke="#FFFFFF" fill="#FFFFFF" x="0.5" y="0.5" width="107" height="107" rx="8"></rect>
            <g id="Group-25" transform="translate(26.000000, 26.000000)" fill-rule="nonzero">
                <g id="2">
                    <path d="M25.6446642,1.1694279 L1.17039032,25.6235764 C-0.145387369,26.9382721 -0.145387369,29.0617278 1.17039032,30.3764236 L25.6446642,54.8305722 C26.9604418,56.1452679 29.0856451,56.1452679 30.4014228,54.8305722 L40.6631364,44.577297 C41.8415113,43.3998911 41.8415113,41.4909387 40.6631364,40.3135328 C39.4847614,39.1361267 37.574238,39.1361267 36.395863,40.3135328 L28.6165404,48.0864586 C28.2890454,48.4136842 27.7920051,48.4136842 27.4645101,48.0864586 L7.92005424,28.5580742 C7.59255927,28.2308485 7.59255927,27.734217 7.92005424,27.4069913 L27.4645101,7.87860704 C27.7920051,7.55138135 28.2890454,7.55138135 28.6165404,7.87860704 L36.395863,15.6515328 C37.574238,16.8289388 39.4847614,16.8289388 40.6631364,15.6515328 C41.8415113,14.4741268 41.8415113,12.5651745 40.6631364,11.3877685 L30.402554,1.13560886 C29.0813737,-0.150636317 26.9553933,-0.140223414 25.6446642,1.1694279 Z" id="Shape" fill="url(#linearGradient-1)"></path>
                    <path d="M25.6446642,1.1694279 L1.17039032,25.6235764 C-0.145387369,26.9382721 -0.145387369,29.0617278 1.17039032,30.3764236 L25.6446642,54.8305722 C26.9604418,56.1452679 29.0856451,56.1452679 30.4014228,54.8305722 L40.6631364,44.577297 C41.8415113,43.3998911 41.8415113,41.4909387 40.6631364,40.3135328 C39.4847614,39.1361267 37.574238,39.1361267 36.395863,40.3135328 L28.6165404,48.0864586 C28.2890454,48.4136842 27.7920051,48.4136842 27.4645101,48.0864586 L7.92005424,28.5580742 C7.59255927,28.2308485 7.59255927,27.734217 7.92005424,27.4069913 L27.4645101,7.87860704 C28.2799619,7.17561141 29.6104598,5.75171072 31.5643026,5.41868564 C33.0163638,5.17118731 34.6038613,5.71592669 36.3267951,7.05290387 C35.1749056,5.90196018 33.2001586,3.92952851 30.402554,1.13560886 C29.0813737,-0.150636317 26.9553933,-0.140223414 25.6446642,1.1694279 Z" id="Shape" fill="url(#linearGradient-2)"></path>
                </g>
                <path d="M42.9691185,38.1040009 C44.1665343,39.2986664 46.1079289,39.2986664 47.3053448,38.1040009 L54.9972013,30.4298116 C56.3342401,29.0958438 56.3342401,26.9412603 54.9973578,25.6074482 L47.2384482,17.8938108 C46.0381976,16.7005633 44.0961865,16.7022841 42.8980619,17.8976567 C41.700646,19.0923222 41.700646,21.0292578 42.8980619,22.2239233 L48.1384724,27.4522971 C48.4712592,27.7843195 48.4712592,28.2882313 48.1384724,28.6202537 L42.9691185,33.7777341 C41.7717023,34.9723996 41.7717023,36.9093352 42.9691185,38.1040009 Z" id="Shape" fill="url(#linearGradient-3)"></path>
            </g>
            <circle id="Combined-Shape" fill="url(#linearGradient-4)" fill-rule="nonzero" cx="54.5" cy="54.5" r="6.5"></circle>
        </g>
    </g>
</svg>